<svg version="1.1" id="Layer_1" xmlns="http://www.w3.org/2000/svg" x="0" y="0" viewBox="0 0 248.88 103.63" xml:space="preserve"><path d="M243.61 5.16H5.6c-.56 0-1.02.46-1.02 1.02v71.37c0 .94.34 1.85.95 2.56 9.46 11 23.44 17.97 39.05 17.97 16.14 0 30.55-7.45 40.01-19.11 9.46 11.66 23.86 19.11 40.01 19.11 16.14 0 30.55-7.45 40.01-19.11 9.46 11.66 23.86 19.11 40.01 19.11 15.61 0 29.59-6.97 39.05-17.97.61-.71.95-1.62.95-2.56V6.19c0-.57-.45-1.03-1.01-1.03z" fill="#c53322"/><path d="M126.3 40.12c0-1.84-1.35-3.53-3.61-3.53-2.12 0-3.99 1.79-5.05 4.01-.1.19-.38.19-.38-.1v-1.93c0-.87-.67-1.59-1.59-1.59h-4.91c-.58 0-.91.39-.91.87 0 .92.87.68.87 3.19V55.1c0 2.51-.87 2.27-.87 3.19 0 .48.34.87.91.87h6.49c.48 0 .87-.39.87-.87 0-.92-.87-.68-.87-3.19v-9.23c0-2.37 1.25-3.43 2.21-3.43.82 0 1.83 1.21 3.42 1.21 2.17 0 3.42-1.74 3.42-3.53zM86.23 55.1l-3.85-12.42c-1.25-4.01-3.66-6.09-6.49-6.09-2.36 0-3.66 1.3-4.47 2.17-.19.24-.43.14-.43-.05v-12.5c0-.48-.38-.92-.91-.92H64.5c-.58 0-.91.39-.91.87 0 .92.87.68.87 3.19V55.1c0 2.51-.87 2.27-.87 3.19 0 .48.34.87.91.87h6.49c.48 0 .87-.39.87-.87 0-.92-.87-.68-.87-3.19V43.98c0-1.69.91-2.95 2.31-2.95 1.44 0 2.26 1.01 2.84 2.95l3.42 11.11c.67 2.56-.48 2.51-.24 3.43.14.48.48.63 1.06.63h6.88c.48 0 .87-.53.72-1.01-.26-.92-.99-.53-1.75-3.04zm20.15-3.92c-1.15 0-2.02.72-2.41 2.22-.38 1.4-1.49 2.61-3.61 2.61-2.31 0-4.04-1.69-5.39-4.44-.1-.19-.05-.39.19-.48l12.56-5.89c.34-.14.43-.53.38-.92-.38-2.13-3.7-7.44-10.2-7.44-5.48 0-10.73 4.06-10.73 11.16 0 6.28 4.62 11.59 11.74 11.59 5.72 0 9.52-3.67 9.52-6.28.02-1.11-.75-2.13-2.05-2.13zm-12.94-3.19c-.43-1.21-.63-2.17-.63-3.29 0-2.75 1.59-4.44 3.61-4.44 1.97 0 3.8 1.5 4.86 4.06.05.14.05.29-.1.34l-7.46 3.48c-.13.05-.23 0-.28-.15zm-38.39-2.17c-2.26-1.16-4.23-2.22-4.23-3.77 0-1.4 1.06-2.37 2.6-2.37 1.73 0 2.6.77 3.03 2.32.34 1.26 1.25 2.17 2.65 2.17 1.64 0 2.36-1.16 2.36-2.46 0-2.75-3.7-5.12-7.74-5.12-5.44 0-8.23 3.33-8.23 6.96 0 3.43 3.03 5.41 5.87 7 2.5 1.4 4.86 2.51 4.86 4.06 0 1.26-1.15 2.13-2.79 2.13-1.68 0-2.6-.92-3.03-2.56-.34-1.3-1.15-2.22-2.6-2.22-1.68 0-2.41 1.4-2.41 2.46 0 3.09 3.85 5.31 7.94 5.31 5.72 0 8.71-2.9 8.71-6.86-.01-3.52-3.81-5.36-6.99-7.05zm126.52-11.06c2.12 0 3.8-1.74 3.8-3.86 0-2.13-1.68-3.82-3.8-3.82-2.16 0-3.85 1.69-3.85 3.82 0 2.12 1.68 3.86 3.85 3.86zM42.84 37.85c0-.48-.38-.87-.87-.87h-5.63c-.58 0-.91.39-.91.87 0 .92.87.68.87 3.19V55.1c0 2.51-.87 2.27-.87 3.19 0 .48.34.87.91.87h6.49c.48 0 .87-.39.87-.87 0-.92-.87-.68-.87-3.19V37.85zm-9.29-10.87c1.44 0 2.41.39 3.22 1.06.1.1.14.19 0 .34-.67.68-1.06 1.64-1.06 2.71 0 2.13 1.68 3.67 3.85 3.67 2.12 0 3.8-1.79 3.8-3.91 0-3.82-4.33-7.39-10.15-7.39-6.11 0-10.97 4.06-10.97 12.32v.97c0 .14-.1.24-.24.24h-2.84c-.43 0-.91.43-.91.92v1.84c0 .53.48.92.91.92H22c.14 0 .24.1.24.24v14.2c0 2.51-.87 2.27-.87 3.19 0 .48.34.87.91.87h6.49c.48 0 .87-.39.87-.87 0-.92-.87-.68-.87-3.19v-14.2c0-.14.1-.24.24-.24h3.56c.48 0 .91-.39.91-.92V37.9c0-.48-.43-.92-.91-.92h-3.56c-.14 0-.24-.1-.24-.24V33.6c.02-4.06 1.9-6.62 4.78-6.62zM204.8 51.96c-1.15 0-2.02.87-2.26 1.88-.48 1.79-1.88 2.71-3.66 2.71-2.79 0-4.52-2.75-4.52-8.36 0-5.51 1.68-8.21 4.43-8.21 1.83 0 2.69.87 3.27 2.71.38 1.21 1.2 1.98 2.55 1.98 1.54 0 2.41-1.11 2.41-2.46 0-3-4.09-5.56-8.13-5.56-6.78 0-11.45 4.59-11.45 11.55 0 6.96 4.67 11.55 11.45 11.55 4.14 0 8.23-2.56 8.23-5.46-.01-1.27-.87-2.33-2.32-2.33zm-73.89-7.3l-9.96 4.64c-.48.24-.67.87-.34 1.35 1.73 2.56 5.15 3.58 8.03 2.22 2.93-1.35 4.38-4.64 3.51-7.63a.894.894 0 00-1.24-.58zm53.98-6.81c0-.48-.38-.87-.87-.87h-5.63c-.58 0-.91.39-.91.87 0 .92.87.68.87 3.19V55.1c0 2.51-.87 2.27-.87 3.19 0 .48.34.87.91.87h6.49c.48 0 .87-.39.87-.87 0-.92-.87-.68-.87-3.19V37.85zm42.47 13.33c-1.15 0-2.02.72-2.41 2.22-.38 1.4-1.49 2.61-3.61 2.61-2.31 0-4.04-1.69-5.39-4.44-.1-.19-.05-.39.19-.48l12.56-5.89c.34-.14.43-.53.38-.92-.38-2.13-3.7-7.44-10.2-7.44-5.48 0-10.73 4.06-10.73 11.16 0 6.28 4.62 11.59 11.74 11.59 5.72 0 9.52-3.67 9.52-6.28.02-1.11-.75-2.13-2.05-2.13zm-12.94-3.19c-.43-1.21-.63-2.17-.63-3.29 0-2.75 1.59-4.44 3.61-4.44 1.97 0 3.8 1.5 4.86 4.06.05.14.05.29-.1.34l-7.46 3.48c-.13.05-.23 0-.28-.15zm-41.99-11.4c-2.12 0-3.99 1.79-5.05 4.01-.1.19-.38.19-.38-.1v-1.93c0-.87-.67-1.59-1.59-1.59h-4.91c-.58 0-.91.39-.91.87 0 .92.87.68.87 3.19V55.1c0 2.51-.87 2.27-.87 3.19 0 .48.34.87.91.87h6.49c.48 0 .87-.39.87-.87 0-.92-.87-.68-.87-3.19v-9.23c0-2.37 1.25-3.43 2.21-3.43.82 0 1.83 1.21 3.42 1.21 2.16 0 3.42-1.74 3.42-3.53 0-1.84-1.35-3.53-3.61-3.53zm-24.25 0c-2.45 0-4.47.97-5.92 2.51-.1.1-.19.1-.19-.1v-.43a1.6 1.6 0 00-1.59-1.59h-4.91c-.58 0-.91.39-.91.87 0 .92.87.68.87 3.19v24.25c0 2.51-.87 2.27-.87 3.19 0 .48.34.87.91.87h6.49c.48 0 .87-.39.87-.87 0-.92-.87-.68-.87-3.19V57.9c0-.1.14-.14.24-.05 1.35 1.3 3.13 1.88 5.15 1.88 6.25 0 10.44-4.69 10.44-11.59.01-6.86-3.89-11.55-9.71-11.55zm-1.73 19.76c-2.31 0-4.38-1.93-4.38-6.23v-3.96c0-4.3 2.07-6.23 4.38-6.23 2.74 0 4.52 2.66 4.52 8.26 0 5.65-2.16 8.16-4.52 8.16z" fill="#fff"/></svg>