<svg xmlns="http://www.w3.org/2000/svg" width="20" height="20"><path d="M18.22 4.629H8.48a1.182 1.182 0 01-1.13-.845L6.47.844a1.182 1.182 0 00-1.13-.845H1.18A1.185 1.185 0 000 1.186v1.019a1.185 1.185 0 001.18 1.187h1.64a1.184 1.184 0 011.14.846l2.44 8.178a2.652 2.652 0 003.03 1.855c1.22-.23 2.8-.574 4.55-1.056a24.792 24.792 0 004.37-1.628 2.823 2.823 0 001.54-2.2A13.6 13.6 0 0020 7.741a15.922 15.922 0 00-.1-1.632 1.693 1.693 0 00-1.68-1.48zM5.6 17.881a2.11 2.11 0 102.11-2.121 2.112 2.112 0 00-2.11 2.121zM16.37 20a2.12 2.12 0 112.12-2.119A2.118 2.118 0 0116.37 20z" fill="#f2f6fa" fill-rule="evenodd"/></svg>