<svg height="512" id="Layer_1" version="1.1" width="512" xml:space="preserve" xmlns="http://www.w3.org/2000/svg"><g id="g5499"><rect height="512" id="rect2987" rx="64" ry="64" width="512" x="0" y="0" fill="#f48420" fill-opacity="1" fill-rule="nonzero" stroke="none"/><g id="g7980" transform="translate(-1327.868 -536.343) scale(1.357)" fill="#fff"><path d="M1167.189 585.718c41.202 0 74.598-33.401 74.598-74.604 0-41.202-33.396-74.604-74.598-74.604-41.208 0-74.604 33.402-74.604 74.604s33.396 74.604 74.604 74.604zm0-111.306c20.266 0 36.702 16.43 36.702 36.702s-16.436 36.702-36.702 36.702c-20.272 0-36.708-16.43-36.708-36.702s16.436-36.702 36.708-36.702z" id="path9"/><path d="M1221.803 591.534c-20.958 16.515-54.614 16.515-54.614 16.515s-33.663 0-54.619-16.515c-15.504-12.214-27.17-5.18-31.38 3.288-7.343 14.748.951 21.879 19.677 33.896 15.994 10.27 37.966 14.105 52.154 15.538l-11.847 11.845c-16.685 16.679-32.788 32.786-43.96 43.96-6.681 6.677-6.681 17.515 0 24.192l2.016 2.014c6.683 6.682 17.514 6.682 24.191 0l43.965-43.958 43.96 43.958c6.681 6.682 17.511 6.682 24.195 0l2.015-2.014c6.678-6.687 6.678-17.515 0-24.193l-43.968-43.965-11.88-11.88c14.201-1.46 35.94-5.313 51.796-15.498 18.723-12.017 27.022-19.148 19.677-33.896-4.209-8.465-15.88-15.501-31.377-3.287z" id="path11-0"/></g></g></svg>